<svg width="20" height="20" viewBox="0 0 20 20" fill="none" xmlns="http://www.w3.org/2000/svg">
<g clip-path="url(#clip0_57_66)">
<path d="M14.7499 19.4167H5.24992C4.41659 19.4167 3.83325 18.75 3.83325 18V5.5H16.1666V17.9167C16.1666 18.75 15.4999 19.4167 14.7499 19.4167Z" stroke="white" stroke-width="1.5" stroke-miterlimit="10" stroke-linecap="round" stroke-linejoin="round"/>
<path d="M17 4.99996V3.49996C17 2.91663 16.5 2.41663 15.9167 2.41663H12.8333L12.5 1.16663C12.3333 0.833293 12.0833 0.666626 11.6667 0.666626H8.33333C8 0.666626 7.66667 0.833293 7.5 1.16663L7.16667 2.33329H4.08333C3.5 2.33329 3 2.83329 3 3.41663V4.99996C3 5.24996 3.25 5.49996 3.5 5.49996H16.5C16.8333 5.49996 17 5.24996 17 4.99996Z" stroke="white" stroke-width="1.5" stroke-miterlimit="10" stroke-linecap="round" stroke-linejoin="round"/>
<path d="M7.33325 8.5V16.4167" stroke="white" stroke-width="1.5" stroke-miterlimit="10" stroke-linecap="round" stroke-linejoin="round"/>
<path d="M10 8.5V16.4167" stroke="white" stroke-width="1.5" stroke-miterlimit="10" stroke-linecap="round" stroke-linejoin="round"/>
<path d="M12.6665 8.5V16.4167" stroke="white" stroke-width="1.5" stroke-miterlimit="10" stroke-linecap="round" stroke-linejoin="round"/>
</g>
<defs>
<clipPath id="clip0_57_66">
<rect width="20" height="20" fill="white"/>
</clipPath>
</defs>
</svg>
