<svg width="14" height="14" viewBox="0 0 14 14" fill="none" xmlns="http://www.w3.org/2000/svg">
<path d="M11.4374 10.9352C11.4374 11.4491 11.0197 11.8826 10.5058 11.8826H3.05137C2.53745 11.8826 2.11979 11.4491 2.11979 10.9352V3.48081C2.11979 2.96689 2.53745 2.56439 3.05137 2.56439H7.39954V1.94373H3.05137C2.19504 1.94373 1.49854 2.62506 1.49854 3.48139V10.9352C1.49854 11.7916 2.19504 12.5032 3.05137 12.5032H10.5052C11.3615 12.5032 12.058 11.791 12.058 10.9352V6.60223H11.4368L11.4374 10.9352Z" fill="#142648"/>
<path d="M12.1373 1.84914C11.6683 1.37955 10.8499 1.37955 10.3803 1.84914L6.21359 6.01589C6.17393 6.05555 6.14534 6.10572 6.13193 6.15997L5.69326 7.91639C5.66701 8.02197 5.69793 8.13397 5.77493 8.21155C5.83384 8.27047 5.91318 8.30255 5.99426 8.30255C6.01934 8.30255 6.04443 8.29964 6.06951 8.29322L7.82651 7.85397C7.88134 7.84055 7.93093 7.81197 7.97059 7.7723L12.1373 3.60555C12.3718 3.37105 12.5013 3.05897 12.5013 2.72705C12.5013 2.39514 12.3724 2.08364 12.1373 1.84914ZM7.59259 7.27239L6.42126 7.56522L6.71409 6.39389L10.161 2.94697L11.0395 3.82547L7.59259 7.27239ZM11.6981 3.1663L11.4788 3.38564L10.6003 2.50714L10.8196 2.2878C11.0541 2.0533 11.4636 2.0533 11.6981 2.2878C11.8153 2.40505 11.8801 2.5608 11.8801 2.72705C11.8801 2.8933 11.8153 3.04905 11.6981 3.1663Z" fill="#142648"/>
</svg>
