<svg width="22" height="23" viewBox="0 0 22 23" fill="none" xmlns="http://www.w3.org/2000/svg">
<g clip-path="url(#clip0_57_222)">
<path d="M2.2 0.5C0.9812 0.5 0 1.4812 0 2.7V20.3C0 21.5188 0.9812 22.5 2.2 22.5H19.8C21.0188 22.5 22 21.5188 22 20.3V2.7C22 1.4812 21.0188 0.5 19.8 0.5H2.2ZM6.15587 5.15438C6.99989 5.15438 7.6835 5.83799 7.6835 6.682C7.6835 7.52601 6.99989 8.211 6.15587 8.211C5.31186 8.211 4.62825 7.52601 4.62825 6.682C4.62825 5.83799 5.31186 5.15438 6.15587 5.15438ZM14.1584 9.13363C14.3309 9.13424 14.507 9.14238 14.7441 9.157C15.8962 9.22805 17.18 10.1285 17.2178 12.2384C17.2488 13.9761 17.2397 16.7299 17.2397 17.7439H14.6204C14.6204 16.7066 14.6314 14.5638 14.6314 13.0483C14.6314 12.3587 14.3218 11.4312 13.2192 11.4312C12.005 11.4312 11.7095 12.5596 11.7095 13.0483C11.7095 14.5035 11.6971 16.8213 11.6971 17.7439H9.09287C9.09287 16.1887 9.10938 10.8511 9.10938 9.344C10.4543 9.344 11.0978 9.34125 11.5899 9.34125C11.5899 9.83481 11.5857 10.165 11.5857 10.5251C11.9966 9.69567 13.1183 9.17632 13.5988 9.1515C13.8178 9.14018 13.9858 9.13301 14.1584 9.13363ZM4.84825 9.377H7.45937V17.7397H4.84825V9.377Z" fill="#142648"/>
</g>
<defs>
<clipPath id="clip0_57_222">
<rect width="22" height="22" fill="white" transform="translate(0 0.5)"/>
</clipPath>
</defs>
</svg>
