<svg width="111" height="34" viewBox="0 0 111 34" fill="none" xmlns="http://www.w3.org/2000/svg">
<path d="M5.33316 24.9081H11.2021V27.7037H1.76074V10.1244H5.33316V24.9081ZM15.2845 12.0889C14.6551 12.0889 14.1277 11.8958 13.7024 11.5096C13.2942 11.1066 13.09 10.6113 13.09 10.0237C13.09 9.43602 13.2942 8.94912 13.7024 8.56294C14.1277 8.15998 14.6551 7.9585 15.2845 7.9585C15.9139 7.9585 16.4328 8.15998 16.841 8.56294C17.2663 8.94912 17.479 9.43602 17.479 10.0237C17.479 10.6113 17.2663 11.1066 16.841 11.5096C16.4328 11.8958 15.9139 12.0889 15.2845 12.0889ZM17.0452 13.7511V27.7037H13.4728V13.7511H17.0452ZM25.9844 27.9303C24.8276 27.9303 23.7899 27.7289 22.8713 27.3259C21.9527 26.9062 21.2212 26.3437 20.6768 25.6385C20.1495 24.9333 19.8602 24.1526 19.8092 23.2963H23.4071C23.4751 23.8336 23.7389 24.2785 24.1982 24.6311C24.6745 24.9837 25.2614 25.16 25.9589 25.16C26.6393 25.16 27.1667 25.0256 27.5409 24.757C27.9322 24.4884 28.1278 24.1441 28.1278 23.7244C28.1278 23.2711 27.8896 22.9352 27.4134 22.717C26.954 22.4819 26.214 22.2301 25.1934 21.9615C24.1386 21.7096 23.271 21.4493 22.5906 21.1807C21.9271 20.9121 21.3488 20.5007 20.8554 19.9466C20.3791 19.3926 20.1409 18.6455 20.1409 17.7052C20.1409 16.9329 20.362 16.2277 20.8044 15.5896C21.2637 14.9515 21.9102 14.4478 22.7437 14.0785C23.5943 13.7092 24.5895 13.5244 25.7292 13.5244C27.4134 13.5244 28.7572 13.9441 29.7609 14.7837C30.7647 15.6064 31.3175 16.7229 31.4196 18.1333H28.0002C27.9492 17.5792 27.711 17.1427 27.2858 16.8237C26.8775 16.4878 26.3247 16.32 25.6271 16.32C24.9807 16.32 24.4789 16.4375 24.1216 16.6726C23.7814 16.9077 23.6113 17.2351 23.6113 17.6548C23.6113 18.1249 23.8495 18.4859 24.3258 18.7378C24.802 18.9729 25.542 19.2163 26.5458 19.4681C27.5665 19.72 28.4085 19.9803 29.072 20.2489C29.7354 20.5175 30.3053 20.9373 30.7816 21.5081C31.275 22.0622 31.5302 22.801 31.5471 23.7244C31.5471 24.5303 31.3175 25.2523 30.8582 25.8903C30.4158 26.5284 29.7695 27.0321 28.9189 27.4015C28.0853 27.7541 27.1071 27.9303 25.9844 27.9303ZM38.6389 16.6474V23.397C38.6389 23.8671 38.7495 24.2114 38.9706 24.4296C39.2088 24.6311 39.6001 24.7318 40.1444 24.7318H41.803V27.7037H39.5575C36.5465 27.7037 35.041 26.2597 35.041 23.3718V16.6474H33.3568V13.7511H35.041V10.3007H38.6389V13.7511H41.803V16.6474H38.6389ZM68.8906 27.9303C67.5296 27.9303 66.3048 27.6366 65.2161 27.0489C64.1274 26.4444 63.2683 25.5966 62.6389 24.5052C62.0265 23.4138 61.7203 22.1545 61.7203 20.7274C61.7203 19.3003 62.035 18.041 62.6644 16.9496C63.3109 15.8582 64.1869 15.0188 65.2927 14.4311C66.3985 13.8266 67.6317 13.5244 68.9927 13.5244C70.3536 13.5244 71.5869 13.8266 72.6927 14.4311C73.7985 15.0188 74.666 15.8582 75.2954 16.9496C75.9419 18.041 76.2651 19.3003 76.2651 20.7274C76.2651 22.1545 75.9334 23.4138 75.2699 24.5052C74.6234 25.5966 73.7389 26.4444 72.6161 27.0489C71.5103 27.6366 70.2685 27.9303 68.8906 27.9303ZM68.8906 24.8578C69.5371 24.8578 70.1409 24.7066 70.7023 24.4044C71.2807 24.0855 71.74 23.6152 72.0803 22.9941C72.4205 22.3729 72.5906 21.6173 72.5906 20.7274C72.5906 19.401 72.2334 18.3852 71.5189 17.68C70.8214 16.958 69.9623 16.597 68.9416 16.597C67.9209 16.597 67.0619 16.958 66.3644 17.68C65.684 18.3852 65.3437 19.401 65.3437 20.7274C65.3437 22.0538 65.6754 23.078 66.3389 23.8C67.0193 24.5052 67.8699 24.8578 68.8906 24.8578ZM86.7194 13.5496C88.4035 13.5496 89.7645 14.0785 90.8021 15.1363C91.8399 16.1773 92.3587 17.638 92.3587 19.5185V27.7037H88.7863V19.997C88.7863 18.8889 88.5056 18.041 87.9442 17.4533C87.3828 16.8489 86.6173 16.5466 85.6477 16.5466C84.661 16.5466 83.8785 16.8489 83.3001 17.4533C82.7387 18.041 82.458 18.8889 82.458 19.997V27.7037H78.8856V13.7511H82.458V15.4889C82.9344 14.8844 83.5383 14.4143 84.2697 14.0785C85.0183 13.7259 85.8348 13.5496 86.7194 13.5496ZM108.897 20.4252C108.897 20.9289 108.863 21.3822 108.795 21.7852H98.4607C98.5457 22.7926 98.903 23.5817 99.5325 24.1526C100.162 24.7234 100.936 25.0089 101.855 25.0089C103.181 25.0089 104.126 24.4464 104.687 23.3215H108.54C108.132 24.6647 107.349 25.7729 106.192 26.6459C105.036 27.5022 103.615 27.9303 101.931 27.9303C100.57 27.9303 99.3453 27.6366 98.2566 27.0489C97.1849 26.4444 96.3428 25.5966 95.7304 24.5052C95.135 23.4138 94.8373 22.1545 94.8373 20.7274C94.8373 19.2834 95.135 18.0158 95.7304 16.9244C96.3257 15.833 97.1594 14.9936 98.2311 14.4059C99.3028 13.8182 100.536 13.5244 101.931 13.5244C103.275 13.5244 104.474 13.8099 105.529 14.3807C106.601 14.9515 107.426 15.7659 108.004 16.8237C108.6 17.8647 108.897 19.0652 108.897 20.4252ZM105.197 19.4178C105.18 18.5111 104.848 17.7892 104.202 17.2518C103.556 16.6978 102.765 16.4207 101.829 16.4207C100.944 16.4207 100.196 16.6893 99.5835 17.2266C98.9881 17.7471 98.6223 18.4775 98.4863 19.4178H105.197Z" fill="white"/>
<mask id="mask0_57_27" style="mask-type:luminance" maskUnits="userSpaceOnUse" x="42" y="10" width="18" height="18">
<path d="M59.9656 10.0741H42.1035V27.7037H59.9656V10.0741Z" fill="white"/>
</mask>
<g mask="url(#mask0_57_27)">
<mask id="mask1_57_27" style="mask-type:luminance" maskUnits="userSpaceOnUse" x="42" y="10" width="18" height="18">
<path d="M59.9656 10.0741H42.1035V27.7037H59.9656V10.0741Z" fill="white"/>
</mask>
<g mask="url(#mask1_57_27)">
<path d="M47.2913 27.3607C48.6214 27.7381 50.0222 27.8051 51.3831 27.5566C52.7441 27.3082 54.0279 26.751 55.1332 25.9289C56.2386 25.1069 57.1351 24.0426 57.7524 22.8199C58.3695 21.5972 58.6904 20.2498 58.6896 18.8837C58.6889 17.5178 58.3663 16.1707 57.7478 14.9487C57.1291 13.7268 56.2312 12.6635 55.1249 11.8427C54.0186 11.022 52.7342 10.4662 51.3729 10.2193C50.0117 9.97239 48.611 10.0411 47.2812 10.42L48.3069 13.9264C49.0861 13.7044 49.9068 13.6641 50.7045 13.8088C51.5022 13.9535 52.2548 14.2791 52.9031 14.7601C53.5513 15.2411 54.0775 15.864 54.44 16.5801C54.8025 17.2961 54.9914 18.0855 54.9919 18.8859C54.9923 19.6863 54.8044 20.476 54.4427 21.1923C54.081 21.9087 53.5556 22.5325 52.9079 23.0141C52.2602 23.4958 51.5079 23.8223 50.7105 23.9679C49.9131 24.1136 49.0922 24.0742 48.3128 23.853L47.2913 27.3607Z" fill="white"/>
</g>
<path d="M49.7587 10.0741H45.9312V27.7037H49.7587V10.0741Z" fill="white"/>
</g>
<path d="M55.2802 24.381C52.3477 21.4552 50.6052 20.1878 47.1831 17.6296L48.4805 15.887C50.6815 16.814 51.9247 17.3256 54.3102 18.0969C57.7502 13.3006 60.8034 9.66175 65.0313 6.64694L67.3634 6.29626C60.9138 13.1358 59.6803 15.9798 55.2802 24.381Z" fill="#12A5CE" stroke="#12A5CE"/>
</svg>
