<svg width="18" height="18" viewBox="0 0 18 18" fill="none" xmlns="http://www.w3.org/2000/svg">
<path fill-rule="evenodd" clip-rule="evenodd" d="M5.00001 4.08333C5.00001 3.48503 5.52234 3 6.16667 3C6.811 3 7.33334 3.48503 7.33334 4.08333C7.33334 4.68164 6.811 5.16667 6.16667 5.16667C5.52234 5.16667 5.00001 4.68164 5.00001 4.08333ZM9.66666 4.08333C9.66666 3.48503 10.189 3 10.8333 3C11.4777 3 12 3.48503 12 4.08333C12 4.68164 11.4777 5.16667 10.8333 5.16667C10.189 5.16667 9.66666 4.68165 9.66666 4.08333ZM5 9.5C5 8.9017 5.52234 8.41667 6.16666 8.41667C6.811 8.41667 7.33333 8.9017 7.33333 9.5C7.33333 10.0983 6.811 10.5833 6.16666 10.5833C5.52234 10.5833 5 10.0983 5 9.5ZM9.66665 9.5C9.66665 8.90169 10.189 8.41667 10.8333 8.41667C11.4777 8.41667 12 8.9017 12 9.5C12 10.0983 11.4777 10.5833 10.8333 10.5833C10.189 10.5833 9.66665 10.0983 9.66665 9.5ZM5 14.9167C5 14.3183 5.52234 13.8333 6.16666 13.8333C6.811 13.8333 7.33333 14.3183 7.33333 14.9167C7.33333 15.515 6.811 16 6.16666 16C5.52234 16 5 15.515 5 14.9167ZM9.66665 14.9167C9.66665 14.3183 10.189 13.8333 10.8333 13.8333C11.4777 13.8333 12 14.3183 12 14.9167C12 15.515 11.4777 16 10.8333 16C10.189 16 9.66665 15.515 9.66665 14.9167Z" fill="white"/>
</svg>
