<svg width="14" height="14" viewBox="0 0 14 14" fill="none" xmlns="http://www.w3.org/2000/svg">
<path d="M3.388 5.60696L4.17667 5.06854C4.23937 5.02574 4.30995 4.99584 4.38432 4.98058C4.45868 4.96532 4.53534 4.96502 4.60982 4.97967C4.68431 4.99433 4.75513 5.02366 4.81817 5.06596C4.88121 5.10826 4.9352 5.16268 4.977 5.22604C5.06247 5.35439 5.0941 5.51118 5.06508 5.66262C5.03606 5.81407 4.9487 5.94805 4.82184 6.03571L2.91025 7.34063C2.84756 7.38343 2.77697 7.41333 2.70261 7.42859C2.62824 7.44384 2.55159 7.44415 2.4771 7.4295C2.40262 7.41484 2.33179 7.38551 2.26875 7.34321C2.20572 7.30091 2.15172 7.24649 2.10992 7.18313L0.820754 5.24879C0.734952 5.12044 0.703128 4.96348 0.732166 4.81185C0.761204 4.66021 0.84877 4.52611 0.97592 4.43854C1.03862 4.39574 1.1092 4.36584 1.18357 4.35058C1.25793 4.33532 1.33459 4.33502 1.40907 4.34967C1.48356 4.36433 1.55438 4.39366 1.61742 4.43596C1.68046 4.47826 1.73445 4.53268 1.77625 4.59604L2.26567 5.33046C2.975 2.92246 5.18 1.16663 7.79042 1.16663C10.9743 1.16663 13.5549 3.77821 13.5549 6.99996C13.5549 10.2217 10.9743 12.8333 7.79042 12.8333C7.71427 12.8328 7.63897 12.8174 7.56879 12.7878C7.49862 12.7583 7.43496 12.7152 7.38144 12.661C7.32792 12.6068 7.2856 12.5426 7.25688 12.4721C7.22817 12.4016 7.21363 12.3261 7.21409 12.25C7.21409 11.928 7.4725 11.6666 7.79042 11.6666C10.3373 11.6666 12.4023 9.57713 12.4023 6.99996C12.4023 4.42279 10.3373 2.33329 7.79042 2.33329C5.72309 2.33329 3.97367 3.70996 3.388 5.60696Z" fill="#142648"/>
</svg>
