<svg width="96" height="96" viewBox="0 0 96 96" fill="none" xmlns="http://www.w3.org/2000/svg">
<rect width="96" height="96" rx="6" fill="#142648"/>
<mask id="mask0_52_164" style="mask-type:luminance" maskUnits="userSpaceOnUse" x="31" y="32" width="44" height="43">
<path d="M74.0014 32.4251H31V74.5829H74.0014V32.4251Z" fill="white"/>
</mask>
<g mask="url(#mask0_52_164)">
<mask id="mask1_52_164" style="mask-type:luminance" maskUnits="userSpaceOnUse" x="31" y="32" width="44" height="43">
<path d="M74.0014 32.4251H31V74.5829H74.0014V32.4251Z" fill="white"/>
</mask>
<g mask="url(#mask1_52_164)">
<path d="M43.4891 73.7627C46.6912 74.6652 50.0634 74.8254 53.3398 74.2312C56.6162 73.6372 59.7068 72.3045 62.3675 70.3388C65.0289 68.3732 67.1871 65.8279 68.6732 62.9043C70.1588 59.9804 70.9314 56.7584 70.9294 53.4916C70.9275 50.2253 70.1511 47.0038 68.6621 44.0817C67.1727 41.1599 65.0111 38.6172 62.3478 36.6544C59.6844 34.6918 56.5921 33.3627 53.3152 32.7723C50.0382 32.1819 46.666 32.3462 43.4648 33.2522L45.934 41.6372C47.8098 41.1063 49.7857 41.0099 51.706 41.3559C53.6264 41.7019 55.4383 42.4806 56.999 43.6306C58.5595 44.781 59.8262 46.2706 60.6989 47.9828C61.5714 49.6949 62.0264 51.5829 62.0276 53.4969C62.0285 55.4106 61.5762 57.2991 60.7052 59.0122C59.8344 60.7253 58.5696 62.2168 57.0105 63.3687C55.4513 64.5206 53.6402 65.3013 51.7205 65.6495C49.8008 65.9979 47.8246 65.9034 45.9482 65.3747L43.4891 73.7627Z" fill="white"/>
</g>
<path d="M49.4291 32.4251H40.2146V74.5829H49.4291V32.4251Z" fill="white"/>
</g>
<path d="M62.7218 66.6373C55.6621 59.6408 51.4672 56.6101 43.2288 50.4927L46.3522 46.3258C51.6509 48.5423 54.6438 49.7657 60.3866 51.6101C68.6681 40.1409 76.0184 31.4392 86.1967 24.2299L91.811 23.3913C76.2842 39.7467 73.3146 46.5477 62.7218 66.6373Z" fill="#12A5CE" stroke="#12A5CE"/>
<path d="M22.54 68.34H36.34V75H14.14V33.12H22.54V68.34Z" fill="white"/>
</svg>
